<svg xmlns="http://www.w3.org/2000/svg" xmlns:xlink="http://www.w3.org/1999/xlink" width="1920" zoomAndPan="magnify" viewBox="0 0 1440 809.999993" height="1080" preserveAspectRatio="xMidYMid meet" version="1.0"><defs><g/></defs><g fill="#ff00ff" fill-opacity="1"><g transform="translate(62.333118, 542.310368)"><g><path d="M 16.097656 -186.710938 L 16.097656 -38.628906 L 54.726562 -38.628906 L 54.726562 0 L 131.984375 0 L 131.984375 -38.628906 L 54.726562 -38.628906 L 54.726562 -186.710938 Z M 54.726562 -225.339844 L 54.726562 -186.710938 L 131.984375 -186.710938 L 131.984375 -148.082031 L 170.617188 -148.082031 L 170.617188 -186.710938 L 131.984375 -186.710938 L 131.984375 -225.339844 Z M 170.617188 -38.628906 L 170.617188 -112.671875 L 93.355469 -112.671875 L 93.355469 -74.039062 L 131.984375 -74.039062 L 131.984375 -38.628906 Z M 170.617188 -38.628906 "/></g></g></g><g fill="#ff00ff" fill-opacity="1"><g transform="translate(283.47479, 542.310368)"><g><path d="M 54.726562 -186.710938 L 131.984375 -186.710938 L 131.984375 -38.628906 L 170.617188 -38.628906 L 170.617188 -186.710938 L 131.984375 -186.710938 L 131.984375 -225.339844 L 54.726562 -225.339844 Z M 54.726562 -186.710938 L 16.097656 -186.710938 L 16.097656 -38.628906 L 54.726562 -38.628906 L 54.726562 0 L 131.984375 0 L 131.984375 -38.628906 L 54.726562 -38.628906 Z M 54.726562 -186.710938 "/></g></g></g><g fill="#ff00ff" fill-opacity="1"><g transform="translate(504.294573, 542.310368)"><g><path d="M 54.726562 -93.355469 L 131.984375 -93.355469 L 131.984375 -38.628906 L 170.617188 -38.628906 L 170.617188 -93.355469 L 131.984375 -93.355469 L 131.984375 -131.984375 L 54.726562 -131.984375 L 54.726562 -186.710938 L 131.984375 -186.710938 L 131.984375 -131.984375 L 170.617188 -131.984375 L 170.617188 -186.710938 L 131.984375 -186.710938 L 131.984375 -225.339844 L 16.097656 -225.339844 L 16.097656 0 L 131.984375 0 L 131.984375 -38.628906 L 54.726562 -38.628906 Z M 54.726562 -93.355469 "/></g></g></g><g fill="#ff00ff" fill-opacity="1"><g transform="translate(725.114379, 542.310368)"><g><path d="M 54.726562 -93.355469 L 131.984375 -93.355469 L 131.984375 -38.628906 L 170.617188 -38.628906 L 170.617188 -93.355469 L 131.984375 -93.355469 L 131.984375 -131.984375 L 54.726562 -131.984375 L 54.726562 -186.710938 L 131.984375 -186.710938 L 131.984375 -131.984375 L 170.617188 -131.984375 L 170.617188 -186.710938 L 131.984375 -186.710938 L 131.984375 -225.339844 L 16.097656 -225.339844 L 16.097656 0 L 131.984375 0 L 131.984375 -38.628906 L 54.726562 -38.628906 Z M 54.726562 -93.355469 "/></g></g></g><g fill="#ff00ff" fill-opacity="1"><g transform="translate(945.934142, 542.310368)"><g><path d="M 16.097656 -225.339844 L 16.097656 0 L 170.617188 0 L 170.617188 -38.628906 L 54.726562 -38.628906 L 54.726562 -225.339844 Z M 16.097656 -225.339844 "/></g></g></g><g fill="#ff00ff" fill-opacity="1"><g transform="translate(1166.753906, 542.310368)"><g><path d="M 16.097656 -225.339844 L 16.097656 0 L 170.617188 0 L 170.617188 -38.628906 L 54.726562 -38.628906 L 54.726562 -93.355469 L 131.984375 -93.355469 L 131.984375 -131.984375 L 54.726562 -131.984375 L 54.726562 -186.710938 L 170.617188 -186.710938 L 170.617188 -225.339844 Z M 16.097656 -225.339844 "/></g></g></g><g fill="#00ffff" fill-opacity="1"><g transform="translate(86.541675, 548.346226)"><g><path d="M 16.097656 -186.710938 L 16.097656 -38.628906 L 54.726562 -38.628906 L 54.726562 0 L 131.984375 0 L 131.984375 -38.628906 L 54.726562 -38.628906 L 54.726562 -186.710938 Z M 54.726562 -225.339844 L 54.726562 -186.710938 L 131.984375 -186.710938 L 131.984375 -148.082031 L 170.617188 -148.082031 L 170.617188 -186.710938 L 131.984375 -186.710938 L 131.984375 -225.339844 Z M 170.617188 -38.628906 L 170.617188 -112.671875 L 93.355469 -112.671875 L 93.355469 -74.039062 L 131.984375 -74.039062 L 131.984375 -38.628906 Z M 170.617188 -38.628906 "/></g></g></g><g fill="#00ffff" fill-opacity="1"><g transform="translate(307.683346, 548.346226)"><g><path d="M 54.726562 -186.710938 L 131.984375 -186.710938 L 131.984375 -38.628906 L 170.617188 -38.628906 L 170.617188 -186.710938 L 131.984375 -186.710938 L 131.984375 -225.339844 L 54.726562 -225.339844 Z M 54.726562 -186.710938 L 16.097656 -186.710938 L 16.097656 -38.628906 L 54.726562 -38.628906 L 54.726562 0 L 131.984375 0 L 131.984375 -38.628906 L 54.726562 -38.628906 Z M 54.726562 -186.710938 "/></g></g></g><g fill="#00ffff" fill-opacity="1"><g transform="translate(528.503129, 548.346226)"><g><path d="M 54.726562 -93.355469 L 131.984375 -93.355469 L 131.984375 -38.628906 L 170.617188 -38.628906 L 170.617188 -93.355469 L 131.984375 -93.355469 L 131.984375 -131.984375 L 54.726562 -131.984375 L 54.726562 -186.710938 L 131.984375 -186.710938 L 131.984375 -131.984375 L 170.617188 -131.984375 L 170.617188 -186.710938 L 131.984375 -186.710938 L 131.984375 -225.339844 L 16.097656 -225.339844 L 16.097656 0 L 131.984375 0 L 131.984375 -38.628906 L 54.726562 -38.628906 Z M 54.726562 -93.355469 "/></g></g></g><g fill="#00ffff" fill-opacity="1"><g transform="translate(749.322936, 548.346226)"><g><path d="M 54.726562 -93.355469 L 131.984375 -93.355469 L 131.984375 -38.628906 L 170.617188 -38.628906 L 170.617188 -93.355469 L 131.984375 -93.355469 L 131.984375 -131.984375 L 54.726562 -131.984375 L 54.726562 -186.710938 L 131.984375 -186.710938 L 131.984375 -131.984375 L 170.617188 -131.984375 L 170.617188 -186.710938 L 131.984375 -186.710938 L 131.984375 -225.339844 L 16.097656 -225.339844 L 16.097656 0 L 131.984375 0 L 131.984375 -38.628906 L 54.726562 -38.628906 Z M 54.726562 -93.355469 "/></g></g></g><g fill="#00ffff" fill-opacity="1"><g transform="translate(970.142699, 548.346226)"><g><path d="M 16.097656 -225.339844 L 16.097656 0 L 170.617188 0 L 170.617188 -38.628906 L 54.726562 -38.628906 L 54.726562 -225.339844 Z M 16.097656 -225.339844 "/></g></g></g><g fill="#00ffff" fill-opacity="1"><g transform="translate(1190.962462, 548.346226)"><g><path d="M 16.097656 -225.339844 L 16.097656 0 L 170.617188 0 L 170.617188 -38.628906 L 54.726562 -38.628906 L 54.726562 -93.355469 L 131.984375 -93.355469 L 131.984375 -131.984375 L 54.726562 -131.984375 L 54.726562 -186.710938 L 170.617188 -186.710938 L 170.617188 -225.339844 Z M 16.097656 -225.339844 "/></g></g></g><g fill="#3b1b72" fill-opacity="1"><g transform="translate(74.437395, 545.328296)"><g><path d="M 16.097656 -186.710938 L 16.097656 -38.628906 L 54.726562 -38.628906 L 54.726562 0 L 131.984375 0 L 131.984375 -38.628906 L 54.726562 -38.628906 L 54.726562 -186.710938 Z M 54.726562 -225.339844 L 54.726562 -186.710938 L 131.984375 -186.710938 L 131.984375 -148.082031 L 170.617188 -148.082031 L 170.617188 -186.710938 L 131.984375 -186.710938 L 131.984375 -225.339844 Z M 170.617188 -38.628906 L 170.617188 -112.671875 L 93.355469 -112.671875 L 93.355469 -74.039062 L 131.984375 -74.039062 L 131.984375 -38.628906 Z M 170.617188 -38.628906 "/></g></g></g><g fill="#3b1b72" fill-opacity="1"><g transform="translate(295.579067, 545.328296)"><g><path d="M 54.726562 -186.710938 L 131.984375 -186.710938 L 131.984375 -38.628906 L 170.617188 -38.628906 L 170.617188 -186.710938 L 131.984375 -186.710938 L 131.984375 -225.339844 L 54.726562 -225.339844 Z M 54.726562 -186.710938 L 16.097656 -186.710938 L 16.097656 -38.628906 L 54.726562 -38.628906 L 54.726562 0 L 131.984375 0 L 131.984375 -38.628906 L 54.726562 -38.628906 Z M 54.726562 -186.710938 "/></g></g></g><g fill="#3b1b72" fill-opacity="1"><g transform="translate(516.39885, 545.328296)"><g><path d="M 54.726562 -93.355469 L 131.984375 -93.355469 L 131.984375 -38.628906 L 170.617188 -38.628906 L 170.617188 -93.355469 L 131.984375 -93.355469 L 131.984375 -131.984375 L 54.726562 -131.984375 L 54.726562 -186.710938 L 131.984375 -186.710938 L 131.984375 -131.984375 L 170.617188 -131.984375 L 170.617188 -186.710938 L 131.984375 -186.710938 L 131.984375 -225.339844 L 16.097656 -225.339844 L 16.097656 0 L 131.984375 0 L 131.984375 -38.628906 L 54.726562 -38.628906 Z M 54.726562 -93.355469 "/></g></g></g><g fill="#3b1b72" fill-opacity="1"><g transform="translate(737.218656, 545.328296)"><g><path d="M 54.726562 -93.355469 L 131.984375 -93.355469 L 131.984375 -38.628906 L 170.617188 -38.628906 L 170.617188 -93.355469 L 131.984375 -93.355469 L 131.984375 -131.984375 L 54.726562 -131.984375 L 54.726562 -186.710938 L 131.984375 -186.710938 L 131.984375 -131.984375 L 170.617188 -131.984375 L 170.617188 -186.710938 L 131.984375 -186.710938 L 131.984375 -225.339844 L 16.097656 -225.339844 L 16.097656 0 L 131.984375 0 L 131.984375 -38.628906 L 54.726562 -38.628906 Z M 54.726562 -93.355469 "/></g></g></g><g fill="#3b1b72" fill-opacity="1"><g transform="translate(958.038419, 545.328296)"><g><path d="M 16.097656 -225.339844 L 16.097656 0 L 170.617188 0 L 170.617188 -38.628906 L 54.726562 -38.628906 L 54.726562 -225.339844 Z M 16.097656 -225.339844 "/></g></g></g><g fill="#3b1b72" fill-opacity="1"><g transform="translate(1178.858183, 545.328296)"><g><path d="M 16.097656 -225.339844 L 16.097656 0 L 170.617188 0 L 170.617188 -38.628906 L 54.726562 -38.628906 L 54.726562 -93.355469 L 131.984375 -93.355469 L 131.984375 -131.984375 L 54.726562 -131.984375 L 54.726562 -186.710938 L 170.617188 -186.710938 L 170.617188 -225.339844 Z M 16.097656 -225.339844 "/></g></g></g></svg>