<svg xmlns="http://www.w3.org/2000/svg" xmlns:xlink="http://www.w3.org/1999/xlink" width="500" zoomAndPan="magnify" viewBox="0 0 375 374.999991" height="500" preserveAspectRatio="xMidYMid meet" version="1.0"><defs><g/></defs><g fill="#ff00ff" fill-opacity="1"><g transform="translate(42.112885, 345.309453)"><g><path d="M 22.875 -265.34375 L 22.875 -54.898438 L 77.773438 -54.898438 L 77.773438 0 L 187.570312 0 L 187.570312 -54.898438 L 77.773438 -54.898438 L 77.773438 -265.34375 Z M 77.773438 -320.242188 L 77.773438 -265.34375 L 187.570312 -265.34375 L 187.570312 -210.445312 L 242.46875 -210.445312 L 242.46875 -265.34375 L 187.570312 -265.34375 L 187.570312 -320.242188 Z M 242.46875 -54.898438 L 242.46875 -160.121094 L 132.671875 -160.121094 L 132.671875 -105.222656 L 187.570312 -105.222656 L 187.570312 -54.898438 Z M 242.46875 -54.898438 "/></g></g></g><g fill="#00ffff" fill-opacity="1"><g transform="translate(87.612847, 356.653861)"><g><path d="M 22.875 -265.34375 L 22.875 -54.898438 L 77.773438 -54.898438 L 77.773438 0 L 187.570312 0 L 187.570312 -54.898438 L 77.773438 -54.898438 L 77.773438 -265.34375 Z M 77.773438 -320.242188 L 77.773438 -265.34375 L 187.570312 -265.34375 L 187.570312 -210.445312 L 242.46875 -210.445312 L 242.46875 -265.34375 L 187.570312 -265.34375 L 187.570312 -320.242188 Z M 242.46875 -54.898438 L 242.46875 -160.121094 L 132.671875 -160.121094 L 132.671875 -105.222656 L 187.570312 -105.222656 L 187.570312 -54.898438 Z M 242.46875 -54.898438 "/></g></g></g><g fill="#3b1b72" fill-opacity="1"><g transform="translate(64.862865, 350.981659)"><g><path d="M 22.875 -265.34375 L 22.875 -54.898438 L 77.773438 -54.898438 L 77.773438 0 L 187.570312 0 L 187.570312 -54.898438 L 77.773438 -54.898438 L 77.773438 -265.34375 Z M 77.773438 -320.242188 L 77.773438 -265.34375 L 187.570312 -265.34375 L 187.570312 -210.445312 L 242.46875 -210.445312 L 242.46875 -265.34375 L 187.570312 -265.34375 L 187.570312 -320.242188 Z M 242.46875 -54.898438 L 242.46875 -160.121094 L 132.671875 -160.121094 L 132.671875 -105.222656 L 187.570312 -105.222656 L 187.570312 -54.898438 Z M 242.46875 -54.898438 "/></g></g></g></svg>